<svg width="18" height="18" viewBox="0 0 18 18" fill="none" xmlns="http://www.w3.org/2000/svg">
<path d="M5.80154 3.2975L10.9889 8.56812C11.1027 8.68312 11.1665 8.83835 11.1665 9.00012C11.1665 9.16189 11.1027 9.31712 10.9889 9.43212L5.80266 14.7027C5.68895 14.8185 5.62524 14.9742 5.62523 15.1364C5.62524 15.2987 5.68895 15.4544 5.80266 15.5701C5.85821 15.6271 5.9246 15.6724 5.99793 15.7033C6.07125 15.7342 6.15002 15.7502 6.2296 15.7502C6.30918 15.7502 6.38795 15.7342 6.46127 15.7033C6.53459 15.6724 6.60099 15.6271 6.65654 15.5701L11.8428 10.3006C12.1836 9.95353 12.3745 9.48654 12.3745 9.00012C12.3745 8.5137 12.1836 8.04671 11.8428 7.69962L6.65654 2.43012C6.60097 2.37297 6.53451 2.32754 6.46108 2.29652C6.38765 2.2655 6.30875 2.24951 6.22904 2.24951C6.14932 2.24951 6.07042 2.2655 5.99699 2.29652C5.92357 2.32754 5.8571 2.37297 5.80154 2.43012C5.68783 2.54583 5.62411 2.70158 5.62411 2.86381C5.62411 3.02604 5.68783 3.18178 5.80154 3.2975Z" fill="#757575"/>
</svg>
