<svg width="25" height="24" viewBox="0 0 25 24" fill="none" xmlns="http://www.w3.org/2000/svg">
<path d="M16.7645 19.6037L9.84796 12.5762C9.69626 12.4228 9.61118 12.2159 9.61118 12.0002C9.61118 11.7845 9.69626 11.5775 9.84796 11.4242L16.763 4.39667C16.9146 4.24238 16.9995 4.03473 16.9995 3.81842C16.9995 3.60211 16.9146 3.39445 16.763 3.24017C16.6889 3.16419 16.6004 3.10382 16.5026 3.06259C16.4048 3.02136 16.2998 3.00013 16.1937 3.00013C16.0876 3.00013 15.9826 3.02136 15.8848 3.06259C15.787 3.10382 15.6985 3.16419 15.6245 3.24017L8.70946 10.2662C8.25507 10.7289 8.00049 11.3516 8.00049 12.0002C8.00049 12.6487 8.25507 13.2714 8.70946 13.7342L15.6245 20.7602C15.6985 20.8364 15.7872 20.8969 15.8851 20.9383C15.983 20.9797 16.0882 21.001 16.1945 21.001C16.3007 21.001 16.4059 20.9797 16.5038 20.9383C16.6017 20.8969 16.6904 20.8364 16.7645 20.7602C16.9161 20.6059 17.001 20.3982 17.001 20.1819C17.001 19.9656 16.9161 19.7579 16.7645 19.6037Z" fill="#CBCBCB"/>
</svg>
