<svg width="25" height="24" viewBox="0 0 25 24" fill="none" xmlns="http://www.w3.org/2000/svg">
<path d="M8.23554 4.39633L15.152 11.4238C15.3037 11.5772 15.3888 11.7841 15.3888 11.9998C15.3888 12.2155 15.3037 12.4225 15.152 12.5758L8.23704 19.6033C8.08543 19.7576 8.00048 19.9653 8.00048 20.1816C8.00048 20.3979 8.08543 20.6056 8.23704 20.7598C8.31111 20.8358 8.39963 20.8962 8.4974 20.9374C8.59516 20.9786 8.70019 20.9999 8.8063 20.9999C8.9124 20.9999 9.01742 20.9786 9.11519 20.9374C9.21295 20.8962 9.30148 20.8358 9.37554 20.7598L16.2905 13.7338C16.7449 13.2711 16.9995 12.6484 16.9995 11.9998C16.9995 11.3513 16.7449 10.7286 16.2905 10.2658L9.37554 3.23984C9.30146 3.16363 9.21284 3.10306 9.11494 3.0617C9.01703 3.02033 8.91183 2.99902 8.80554 2.99902C8.69926 2.99902 8.59406 3.02033 8.49615 3.0617C8.39825 3.10306 8.30963 3.16363 8.23554 3.23984C8.08393 3.39412 7.99898 3.60178 7.99898 3.81808C7.99898 4.03439 8.08393 4.24205 8.23554 4.39633Z" fill="#1E1E1E"/>
</svg>
