<svg width="25" height="24" viewBox="0 0 25 24" fill="none" xmlns="http://www.w3.org/2000/svg">
<path fill-rule="evenodd" clip-rule="evenodd" d="M5.63636 6.36364C6.07035 6.36364 6.48657 6.13377 6.79345 5.7246C7.10033 5.31543 7.27273 4.76047 7.27273 4.18182C7.27273 3.60316 7.10033 3.04821 6.79345 2.63904C6.48657 2.22987 6.07035 2 5.63636 2C5.20237 2 4.78616 2.22987 4.47928 2.63904C4.1724 3.04821 4 3.60316 4 4.18182C4 4.76047 4.1724 5.31543 4.47928 5.7246C4.78616 6.13377 5.20237 6.36364 5.63636 6.36364ZM9.89091 2.87273C9.63051 2.87273 9.38078 3.01065 9.19666 3.25615C9.01253 3.50165 8.90909 3.83463 8.90909 4.18182C8.90909 4.52901 9.01253 4.86198 9.19666 5.10749C9.38078 5.35299 9.63051 5.49091 9.89091 5.49091H21.0182C21.2786 5.49091 21.5283 5.35299 21.7124 5.10749C21.8966 4.86198 22 4.52901 22 4.18182C22 3.83463 21.8966 3.50165 21.7124 3.25615C21.5283 3.01065 21.2786 2.87273 21.0182 2.87273H9.89091ZM9.89091 17.7091C9.63051 17.7091 9.38078 17.847 9.19666 18.0925C9.01253 18.338 8.90909 18.671 8.90909 19.0182C8.90909 19.3654 9.01253 19.6983 9.19666 19.9438C9.38078 20.1894 9.63051 20.3273 9.89091 20.3273H21.0182C21.2786 20.3273 21.5283 20.1894 21.7124 19.9438C21.8966 19.6983 22 19.3654 22 19.0182C22 18.671 21.8966 18.338 21.7124 18.0925C21.5283 17.847 21.2786 17.7091 21.0182 17.7091H9.89091ZM8.90909 11.6C8.90909 11.2528 9.01253 10.9198 9.19666 10.6743C9.38078 10.4288 9.63051 10.2909 9.89091 10.2909H21.0182C21.2786 10.2909 21.5283 10.4288 21.7124 10.6743C21.8966 10.9198 22 11.2528 22 11.6C22 11.9472 21.8966 12.2802 21.7124 12.5257C21.5283 12.7712 21.2786 12.9091 21.0182 12.9091H9.89091C9.63051 12.9091 9.38078 12.7712 9.19666 12.5257C9.01253 12.2802 8.90909 11.9472 8.90909 11.6ZM7.27273 11.6C7.27273 12.1787 7.10033 12.7336 6.79345 13.1428C6.48657 13.5519 6.07035 13.7818 5.63636 13.7818C5.20237 13.7818 4.78616 13.5519 4.47928 13.1428C4.1724 12.7336 4 12.1787 4 11.6C4 11.0213 4.1724 10.4664 4.47928 10.0572C4.78616 9.64805 5.20237 9.41818 5.63636 9.41818C6.07035 9.41818 6.48657 9.64805 6.79345 10.0572C7.10033 10.4664 7.27273 11.0213 7.27273 11.6ZM5.63636 21.2C6.07035 21.2 6.48657 20.9701 6.79345 20.561C7.10033 20.1518 7.27273 19.5968 7.27273 19.0182C7.27273 18.4395 7.10033 17.8846 6.79345 17.4754C6.48657 17.0662 6.07035 16.8364 5.63636 16.8364C5.20237 16.8364 4.78616 17.0662 4.47928 17.4754C4.1724 17.8846 4 18.4395 4 19.0182C4 19.5968 4.1724 20.1518 4.47928 20.561C4.78616 20.9701 5.20237 21.2 5.63636 21.2Z" fill="#FFFEFE"/>
</svg>
