<svg width="24" height="24" viewBox="0 0 24 24" fill="none" xmlns="http://www.w3.org/2000/svg">
<path fill-rule="evenodd" clip-rule="evenodd" d="M4.76673 6.36364C5.20073 6.36364 5.61694 6.13377 5.92382 5.7246C6.2307 5.31543 6.4031 4.76047 6.4031 4.18182C6.4031 3.60316 6.2307 3.04821 5.92382 2.63904C5.61694 2.22987 5.20073 2 4.76673 2C4.33274 2 3.91653 2.22987 3.60965 2.63904C3.30277 3.04821 3.13037 3.60316 3.13037 4.18182C3.13037 4.76047 3.30277 5.31543 3.60965 5.7246C3.91653 6.13377 4.33274 6.36364 4.76673 6.36364ZM9.02128 2.87273C8.76089 2.87273 8.51116 3.01065 8.32703 3.25615C8.1429 3.50165 8.03946 3.83463 8.03946 4.18182C8.03946 4.52901 8.1429 4.86198 8.32703 5.10749C8.51116 5.35299 8.76089 5.49091 9.02128 5.49091H20.1486C20.4089 5.49091 20.6587 5.35299 20.8428 5.10749C21.0269 4.86198 21.1304 4.52901 21.1304 4.18182C21.1304 3.83463 21.0269 3.50165 20.8428 3.25615C20.6587 3.01065 20.4089 2.87273 20.1486 2.87273H9.02128ZM9.02128 17.7091C8.76089 17.7091 8.51116 17.847 8.32703 18.0925C8.1429 18.338 8.03946 18.671 8.03946 19.0182C8.03946 19.3654 8.1429 19.6983 8.32703 19.9438C8.51116 20.1894 8.76089 20.3273 9.02128 20.3273H20.1486C20.4089 20.3273 20.6587 20.1894 20.8428 19.9438C21.0269 19.6983 21.1304 19.3654 21.1304 19.0182C21.1304 18.671 21.0269 18.338 20.8428 18.0925C20.6587 17.847 20.4089 17.7091 20.1486 17.7091H9.02128ZM8.03946 11.6C8.03946 11.2528 8.1429 10.9198 8.32703 10.6743C8.51116 10.4288 8.76089 10.2909 9.02128 10.2909H20.1486C20.4089 10.2909 20.6587 10.4288 20.8428 10.6743C21.0269 10.9198 21.1304 11.2528 21.1304 11.6C21.1304 11.9472 21.0269 12.2802 20.8428 12.5257C20.6587 12.7712 20.4089 12.9091 20.1486 12.9091H9.02128C8.76089 12.9091 8.51116 12.7712 8.32703 12.5257C8.1429 12.2802 8.03946 11.9472 8.03946 11.6ZM6.4031 11.6C6.4031 12.1787 6.2307 12.7336 5.92382 13.1428C5.61694 13.5519 5.20073 13.7818 4.76673 13.7818C4.33274 13.7818 3.91653 13.5519 3.60965 13.1428C3.30277 12.7336 3.13037 12.1787 3.13037 11.6C3.13037 11.0213 3.30277 10.4664 3.60965 10.0572C3.91653 9.64805 4.33274 9.41818 4.76673 9.41818C5.20073 9.41818 5.61694 9.64805 5.92382 10.0572C6.2307 10.4664 6.4031 11.0213 6.4031 11.6ZM4.76673 21.2C5.20073 21.2 5.61694 20.9701 5.92382 20.561C6.2307 20.1518 6.4031 19.5968 6.4031 19.0182C6.4031 18.4395 6.2307 17.8846 5.92382 17.4754C5.61694 17.0662 5.20073 16.8364 4.76673 16.8364C4.33274 16.8364 3.91653 17.0662 3.60965 17.4754C3.30277 17.8846 3.13037 18.4395 3.13037 19.0182C3.13037 19.5968 3.30277 20.1518 3.60965 20.561C3.91653 20.9701 4.33274 21.2 4.76673 21.2Z" fill="#4CAF50"/>
</svg>
