<svg width="20" height="20" viewBox="0 0 20 20" fill="none" xmlns="http://www.w3.org/2000/svg">
<path d="M10.625 5.83325C10.625 5.66749 10.5592 5.50852 10.4419 5.39131C10.3247 5.2741 10.1658 5.20825 10 5.20825C9.83424 5.20825 9.67527 5.2741 9.55806 5.39131C9.44085 5.50852 9.375 5.66749 9.375 5.83325V9.99992C9.37496 10.1059 9.40185 10.2101 9.45317 10.3028C9.50448 10.3955 9.57852 10.4737 9.66833 10.5299L12.1683 12.0924C12.3089 12.1804 12.4786 12.2089 12.6402 12.1717C12.7203 12.1533 12.7959 12.1193 12.8627 12.0717C12.9296 12.024 12.9864 11.9637 13.03 11.8941C13.0736 11.8245 13.103 11.747 13.1166 11.666C13.1302 11.585 13.1277 11.5022 13.1093 11.4222C13.0909 11.3422 13.0569 11.2666 13.0092 11.1997C12.9616 11.1328 12.9013 11.076 12.8317 11.0324L10.625 9.65325V5.83325Z" fill="#1E1E1E"/>
<path fill-rule="evenodd" clip-rule="evenodd" d="M9.99992 2.70825C8.06605 2.70825 6.21138 3.47648 4.84393 4.84393C3.47648 6.21138 2.70825 8.06605 2.70825 9.99992C2.70825 11.9338 3.47648 13.7885 4.84393 15.1559C6.21138 16.5234 8.06605 17.2916 9.99992 17.2916C11.9338 17.2916 13.7885 16.5234 15.1559 15.1559C16.5234 13.7885 17.2916 11.9338 17.2916 9.99992C17.2916 8.06605 16.5234 6.21138 15.1559 4.84393C13.7885 3.47648 11.9338 2.70825 9.99992 2.70825ZM3.95825 9.99992C3.95825 9.20652 4.11452 8.42088 4.41815 7.68787C4.72177 6.95486 5.16679 6.28884 5.72782 5.72781C6.28884 5.16679 6.95486 4.72177 7.68787 4.41815C8.42088 4.11452 9.20652 3.95825 9.99992 3.95825C10.7933 3.95825 11.579 4.11452 12.312 4.41815C13.045 4.72177 13.711 5.16679 14.272 5.72781C14.833 6.28884 15.2781 6.95486 15.5817 7.68787C15.8853 8.42088 16.0416 9.20652 16.0416 9.99992C16.0416 11.6023 15.4051 13.139 14.272 14.272C13.139 15.4051 11.6023 16.0416 9.99992 16.0416C8.39757 16.0416 6.86085 15.4051 5.72782 14.272C4.59478 13.139 3.95825 11.6023 3.95825 9.99992Z" fill="#1E1E1E"/>
</svg>
