<svg width="30" height="31" viewBox="0 0 30 31" fill="none" xmlns="http://www.w3.org/2000/svg">
<path fill-rule="evenodd" clip-rule="evenodd" d="M3.75 0.5H26.25C28.3181 0.5 30 2.18187 30 4.25V26.75C30 28.8181 28.3181 30.5 26.25 30.5H20.625V20.1875H23.4375L25.3125 15.5H20.625V11.75C20.625 10.7987 21.3347 10.8041 22.2532 10.8112C22.334 10.8119 22.4163 10.8125 22.5 10.8125H24.375V6.125H20.625C19.1332 6.125 17.7024 6.71763 16.6475 7.77252C15.5926 8.82742 15 10.2582 15 11.75V15.5H11.25V20.1875H15V30.5H3.75C1.68187 30.5 0 28.8181 0 26.75V4.25C0 2.18187 1.68187 0.5 3.75 0.5Z" fill="#FF5722"/>
</svg>
