<svg width="30" height="31" viewBox="0 0 30 31" fill="none" xmlns="http://www.w3.org/2000/svg">
<g clip-path="url(#clip0_1330_14128)">
<path d="M16.1859 1C17.837 1.0044 18.675 1.01321 19.3985 1.03376L19.6833 1.04403C20.012 1.05577 20.3364 1.07045 20.7282 1.08806C22.2898 1.16144 23.3553 1.408 24.2902 1.77051C25.2588 2.14329 26.0748 2.64815 26.8908 3.46269C27.6374 4.19611 28.2149 5.08365 28.583 6.06333C28.9455 6.99822 29.1921 8.06372 29.2654 9.62675C29.283 10.0171 29.2977 10.3415 29.3095 10.6717L29.3183 10.9564C29.3403 11.6785 29.3491 12.5165 29.352 14.1676L29.3535 15.2625V17.1851C29.3571 18.2556 29.3458 19.326 29.3197 20.3962L29.3109 20.681C29.2992 21.0112 29.2845 21.3355 29.2669 21.7259C29.1935 23.2889 28.944 24.353 28.583 25.2893C28.2149 26.269 27.6374 27.1565 26.8908 27.89C26.1574 28.6365 25.2698 29.214 24.2902 29.5822C23.3553 29.9447 22.2898 30.1912 20.7282 30.2646L19.6833 30.3086L19.3985 30.3174C18.675 30.338 17.837 30.3483 16.1859 30.3512L15.091 30.3527H13.1699C12.0989 30.3564 11.0279 30.3452 9.95726 30.3189L9.67254 30.3101C9.32414 30.2969 8.97581 30.2817 8.62758 30.2646C7.06602 30.1912 6.00052 29.9447 5.06417 29.5822C4.08501 29.2139 3.19799 28.6364 2.46499 27.89C1.71789 27.1567 1.13988 26.2691 0.771342 25.2893C0.408837 24.3544 0.162274 23.2889 0.0888927 21.7259L0.0448637 20.681L0.0375258 20.3962C0.0104715 19.3261 -0.00176012 18.2556 0.000834785 17.1851V14.1676C-0.00322747 13.0971 0.00753632 12.0266 0.0331228 10.9564L0.0433962 10.6717C0.0551373 10.3415 0.0698136 10.0171 0.0874251 9.62675C0.160807 8.06372 0.407369 6.99968 0.769874 6.06333C1.13927 5.08325 1.71829 4.19568 2.46646 3.46269C3.19903 2.71647 4.08553 2.13899 5.06417 1.77051C6.00052 1.408 7.06455 1.16144 8.62758 1.08806C9.01797 1.07045 9.34379 1.05577 9.67254 1.04403L9.95726 1.03522C11.0274 1.00915 12.0979 0.997894 13.1684 1.00147L16.1859 1ZM14.6772 8.33817C12.731 8.33817 10.8645 9.11129 9.4883 10.4875C8.11213 11.8636 7.339 13.7301 7.339 15.6763C7.339 17.6225 8.11213 19.489 9.4883 20.8652C10.8645 22.2414 12.731 23.0145 14.6772 23.0145C16.6234 23.0145 18.4899 22.2414 19.866 20.8652C21.2422 19.489 22.0153 17.6225 22.0153 15.6763C22.0153 13.7301 21.2422 11.8636 19.866 10.4875C18.4899 9.11129 16.6234 8.33817 14.6772 8.33817ZM14.6772 11.2734C15.2554 11.2733 15.8279 11.3871 16.3621 11.6083C16.8964 11.8295 17.3818 12.1537 17.7907 12.5625C18.1996 12.9713 18.524 13.4566 18.7454 13.9907C18.9667 14.5249 19.0807 15.0974 19.0808 15.6756C19.0809 16.2538 18.9671 16.8263 18.7459 17.3606C18.5247 17.8948 18.2005 18.3802 17.7917 18.7891C17.383 19.198 16.8976 19.5224 16.3635 19.7438C15.8293 19.9652 15.2568 20.0791 14.6786 20.0792C13.5109 20.0792 12.391 19.6154 11.5653 18.7896C10.7396 17.9639 10.2757 16.8441 10.2757 15.6763C10.2757 14.5086 10.7396 13.3887 11.5653 12.563C12.391 11.7373 13.5109 11.2734 14.6786 11.2734M22.3837 6.13672C21.8972 6.13672 21.4305 6.33 21.0865 6.67404C20.7424 7.01808 20.5492 7.48471 20.5492 7.97126C20.5492 8.45781 20.7424 8.92443 21.0865 9.26847C21.4305 9.61252 21.8972 9.8058 22.3837 9.8058C22.8703 9.8058 23.3369 9.61252 23.6809 9.26847C24.025 8.92443 24.2182 8.45781 24.2182 7.97126C24.2182 7.48471 24.025 7.01808 23.6809 6.67404C23.3369 6.33 22.8703 6.13672 22.3837 6.13672Z" fill="#FF5722"/>
</g>
<defs>
<clipPath id="clip0_1330_14128">
<rect width="30" height="30" fill="white" transform="translate(0 0.5)"/>
</clipPath>
</defs>
</svg>
