<svg width="1440" height="1024" viewBox="0 0 1440 1024" fill="none" xmlns="http://www.w3.org/2000/svg">
<g clip-path="url(#clip0_1317_3194)">
<g opacity="0.4">
<path fill-rule="evenodd" clip-rule="evenodd" d="M1388.17 747.301C1422.43 810.212 1412.95 866.761 1360.08 914.836L1329.88 942.302L1290.46 904.424C1268.78 883.591 1248.37 865.685 1245.1 864.636C1241.82 863.587 1253.93 884.067 1272.01 910.152L1304.88 957.578L1278.39 976.948C1263.82 987.601 1233.39 1006.17 1210.75 1018.21L1169.59 1040.09L1140.15 1013.51C1123.96 998.894 1102.42 980.014 1092.29 971.558L1073.87 956.188L1093.79 983.808C1136.61 1043.18 1139.22 1047.98 1131.91 1053.91C1121.48 1062.35 1071.02 1079.48 1025.36 1090.07C971.287 1102.62 928.127 1099.15 911.539 1080.92C880.733 1047.06 919.603 940.726 1009.49 812.963C1025.54 790.146 1041.31 771.885 1044.52 772.38C1047.74 772.872 1069.94 789.112 1093.85 808.468C1117.76 827.823 1138.38 843.761 1139.69 843.886C1140.98 844.009 1124.54 823.158 1103.15 797.548C1081.75 771.937 1064.46 748.262 1064.71 744.939C1065.66 732.492 1129.53 671.265 1155.18 658.223C1197.29 636.8 1251.77 639.95 1301.92 666.702C1332.07 682.788 1374.77 722.692 1388.17 747.301Z" fill="#FF5722"/>
<path fill-rule="evenodd" clip-rule="evenodd" d="M1608.37 637.037C1612.95 643.43 1615.39 657.256 1613.82 667.964C1605.32 726.093 1495.13 746.553 1417.16 704.483C1385.37 687.329 1373.3 671.99 1363.19 635.901C1347.4 579.551 1358 525.086 1391.53 490.275C1408.04 473.132 1420.8 466.567 1436.08 468.029C1456.51 469.984 1464.38 480.317 1474.34 491.261C1489.57 507.999 1500.35 535.586 1502.83 564.202L1504.64 584.98L1525.57 589.899C1566.16 599.441 1591.96 614.129 1608.37 637.037Z" fill="#4CAF50"/>
</g>
<g opacity="0.4">
<path fill-rule="evenodd" clip-rule="evenodd" d="M362.904 153.261C410.232 213.877 410.115 275.434 362.567 335.631L335.404 370.022L287.004 336.825C260.388 318.566 235.626 303.185 231.972 302.649C228.319 302.113 244.744 321.677 268.468 346.131L311.603 390.59L286.952 415.754C273.394 429.594 244.415 454.602 222.553 471.326L182.805 501.734L146.959 478.75C127.242 466.11 101.119 449.894 88.9051 442.717L66.6942 429.673L92.6409 455.428C148.418 510.795 152.025 515.421 145.318 522.978C135.76 533.749 85.3196 560.748 38.8266 579.983C-16.2431 602.765 -62.5633 606.668 -83.3319 590.273C-121.902 559.824 -99.4026 440.378 -26.6304 289.283C-13.6405 262.301 -0.147494 240.192 3.34955 240.152C6.84215 240.108 33.1998 253.412 61.928 269.713C90.6482 286.015 115.288 299.274 116.688 299.178C118.08 299.082 97.0048 279.884 69.8556 256.515C42.6984 233.147 20.2253 211.109 19.9114 207.545C18.732 194.195 75.6332 118.136 100.506 99.8205C141.346 69.7388 199.594 63.5118 257.404 83.0411C292.16 94.7842 344.392 129.551 362.904 153.261Z" fill="#FF5722"/>
<path fill-rule="evenodd" clip-rule="evenodd" d="M576.76 -2.17618C582.735 3.79019 587.742 18.0059 587.96 29.6222C589.161 92.6799 476.056 133.692 386.089 102.824C349.411 90.236 333.935 76.1095 316.89 39.6623C290.275 -17.2462 291.941 -76.7913 321.337 -119.546C335.817 -140.601 348.18 -149.794 364.615 -150.927C386.6 -152.444 396.75 -142.882 409.218 -133.039C428.287 -117.986 444.544 -90.6595 452.198 -60.7882L457.757 -39.0989L480.798 -37.5652C525.462 -34.5857 555.363 -23.5576 576.76 -2.17618Z" fill="#4CAF50"/>
</g>
<g opacity="0.25">
<path fill-rule="evenodd" clip-rule="evenodd" d="M1108.14 125.83C1121.06 174.075 1105.37 210.845 1061.67 234.767L1036.7 248.435L1016.19 216.309C1004.91 198.64 994.014 183.162 991.966 181.915C989.918 180.667 994.773 196.53 1002.75 217.168L1017.26 254.692L996.135 263.48C984.519 268.314 960.849 275.911 943.537 280.362L912.059 288.455L896.462 265.619C887.882 253.06 876.379 236.738 870.899 229.348L860.931 215.915L869.907 237.896C889.203 285.147 890.186 288.827 884.259 291.643C875.812 295.657 838.808 298.999 806.133 298.701C767.431 298.348 738.75 288.929 730.494 273.858C715.162 245.869 758.92 180.171 840.761 108.309C855.373 95.4746 869.049 85.6812 871.15 86.5444C873.249 87.4043 885.63 102.045 898.668 119.08C911.701 136.112 923.067 150.291 923.928 150.588C924.785 150.884 917.057 134.06 906.756 113.201C896.45 92.3411 888.607 73.4641 889.324 71.254C892.006 62.9738 945.321 31.9425 964.837 27.3042C996.885 19.6833 1033.29 30.7399 1062.89 57.0831C1080.69 72.9217 1103.09 106.959 1108.14 125.83Z" fill="#FF5722"/>
<path fill-rule="evenodd" clip-rule="evenodd" d="M1275.43 87.1695C1277.49 92.2523 1276.87 102.021 1274.05 109.021C1258.77 147.022 1180.75 142.842 1134.8 101.561C1116.07 84.7294 1110.4 72.3575 1109.46 46.2441C1107.99 5.47058 1124.09 -29.7036 1152.51 -47.804C1166.51 -56.717 1176.23 -59.0759 1186.35 -55.5836C1199.88 -50.9117 1203.52 -42.6202 1208.47 -33.5725C1216.05 -19.7349 1218.84 0.725814 1215.83 20.5252L1213.65 34.902L1227.04 41.6649C1252.98 54.7788 1268.06 68.9584 1275.43 87.1695Z" fill="#4CAF50"/>
</g>
<g opacity="0.25">
<path fill-rule="evenodd" clip-rule="evenodd" d="M579.345 995.627C542.755 1034.8 500.359 1041.41 453.744 1015.22L427.112 1000.26L444.707 963.324C454.385 943.013 462.284 924.292 462.256 921.718C462.228 919.144 450.543 932.58 436.285 951.572L410.363 986.105L390.358 971.868C379.355 964.037 358.986 946.803 345.095 933.569L319.837 909.508L331.766 882.328C338.326 867.379 346.651 847.63 350.264 838.44L356.831 821.73L341.918 842.394C309.861 886.817 307.068 889.803 301.136 886.007C292.681 880.597 268.608 848.802 250.311 818.882C228.638 783.442 220.915 751.974 229.946 735.893C246.718 706.026 331.404 708.533 443.347 742.213C463.336 748.223 480.026 755.11 480.434 757.514C480.843 759.914 474.549 779.507 466.448 801.059C458.346 822.606 451.895 841.012 452.114 841.966C452.331 842.913 463.258 826.316 476.396 805.083C489.534 783.844 502.265 765.976 504.684 765.372C513.748 763.109 572.301 794.018 587.615 809.152C612.767 834.001 623.386 873.429 616.224 915.355C611.917 940.562 593.657 980.304 579.345 995.627Z" fill="#FF5722"/>
<path fill-rule="evenodd" clip-rule="evenodd" d="M709.614 1125.97C706.156 1130.74 696.912 1135.73 688.938 1137.14C645.652 1144.82 605.119 1071.41 616.592 1006.11C621.273 979.486 629.316 967.295 652.558 951.597C688.847 927.086 730.026 921.76 762.659 937.352C778.73 945.033 786.403 952.545 788.97 963.738C792.404 978.71 786.924 986.738 781.503 996.393C773.211 1011.16 756.164 1025.32 736.429 1033.84L722.1 1040.02L723.548 1056.05C726.352 1087.13 722.01 1108.92 709.614 1125.97Z" fill="#4CAF50"/>
</g>
</g>
<defs>
<clipPath id="clip0_1317_3194">
<rect width="1440" height="1024" fill="white"/>
</clipPath>
</defs>
</svg>
