<svg width="644" height="620" viewBox="0 0 644 620" fill="none" xmlns="http://www.w3.org/2000/svg">
<g clip-path="url(#clip0_1317_5110)">
<rect width="644" height="620" rx="36" fill="#FFFEFE"/>
<path d="M599.904 666.358C584.454 659.21 567.741 653.119 553.283 644.113C523.795 625.744 511.168 586.932 508.263 553.665C506.174 529.74 511.989 502.102 529.957 484.814C537.441 477.613 546.712 472.802 556.752 470.544C567.391 468.152 579.131 472.353 588.695 476.693C603.548 483.434 618.49 496.464 616.682 514.725C616.236 519.232 614.646 525.898 611.056 529.046C606.885 532.702 600.904 531.027 596.621 528.773C589.478 525.013 586.488 519.004 584.055 511.496C578.732 495.071 579.415 478.811 583.03 462.003C588.626 435.985 600.065 407.523 624.259 393.492C637.401 385.871 653.268 384.434 667.765 380.988" stroke="#4CAF50" stroke-width="3" stroke-linecap="round"/>
<path d="M117.62 -33.007C114.905 -18.2118 111.674 -3.14848 104.32 10.1161C98.6557 20.3314 90.8523 30.3707 81.1279 37.0941C72.8373 42.8262 59.5581 41.5975 51.9869 35.1693C47.1644 31.0749 43.3676 25.3806 43.5388 18.8643C43.6323 15.3054 45.1054 14.4181 48.3249 14.7272C60.6878 15.9141 72.48 22.8689 77.4143 34.6611C82.0163 45.6591 82.4293 57.0572 80.8686 68.7317C77.8057 91.6428 72.1828 115.035 58.2381 133.92C43.7114 153.593 24.8822 171.645 4.50091 185.226C-20.3621 201.793 -48.7091 212.466 -76.0002 224.269" stroke="#4CAF50" stroke-width="3" stroke-linecap="round"/>
</g>
<defs>
<clipPath id="clip0_1317_5110">
<rect width="644" height="620" rx="36" fill="white"/>
</clipPath>
</defs>
</svg>
