<svg width="132" height="55" viewBox="0 0 132 55" fill="none" xmlns="http://www.w3.org/2000/svg">
<path fill-rule="evenodd" clip-rule="evenodd" d="M119.938 12.4099C121.523 14.4174 121.608 16.5758 120.188 18.8043L119.377 20.0774L117.796 19.0338C116.927 18.4598 116.121 17.9821 116.004 17.9724C115.888 17.9626 116.436 18.6077 117.222 19.4061L118.652 20.8576L117.907 21.801C117.498 22.3199 116.616 23.2686 115.947 23.9092L114.732 25.074L113.564 24.3573C112.921 23.9631 112.071 23.4595 111.673 23.2382L110.951 22.8361L111.81 23.6746C113.656 25.4771 113.776 25.6303 113.575 25.9119C113.288 26.3132 111.729 27.3851 110.284 28.1749C108.572 29.1103 107.111 29.3622 106.429 28.839C105.164 27.8674 105.706 23.6239 107.795 18.1461C108.168 17.1679 108.563 16.3593 108.674 16.3492C108.785 16.339 109.639 16.7399 110.572 17.24C111.505 17.7402 112.304 18.1439 112.348 18.137C112.392 18.1302 111.697 17.5095 110.804 16.7577C109.91 16.0059 109.167 15.2891 109.152 15.1649C109.096 14.6998 110.789 11.892 111.551 11.1881C112.801 10.0321 114.637 9.66912 116.496 10.2102C117.613 10.5356 119.317 11.6247 119.938 12.4099Z" fill="#FF5722"/>
<path fill-rule="evenodd" clip-rule="evenodd" d="M126.489 6.42901C126.686 6.62334 126.865 7.10927 126.889 7.51598C127.017 9.72367 123.493 11.4424 120.6 10.5837C119.42 10.2335 118.91 9.77668 118.318 8.54125C117.394 6.61226 117.361 4.52059 118.231 2.94869C118.66 2.17458 119.038 1.82159 119.557 1.74102C120.251 1.63326 120.586 1.94326 120.995 2.25736C121.621 2.73775 122.175 3.65536 122.46 4.68358L122.667 5.43015L123.399 5.42669C124.818 5.42021 125.78 5.73257 126.489 6.42901Z" fill="#4CAF50"/>
<path d="M20.171 35.5705C18.9508 35.5705 17.8647 35.3226 16.9129 34.8267C15.9855 34.3556 15.2534 33.649 14.7164 32.7068C14.1795 31.7647 13.9111 30.6365 13.9111 29.3225C13.9111 29.0001 13.9233 28.6654 13.9477 28.3183C13.9721 27.996 14.0087 27.6613 14.0575 27.3142C12.0562 27.4381 10.2014 27.2026 8.49307 26.6075C6.78469 26.0125 5.29596 25.1323 4.02688 23.967C2.75781 22.7769 1.76939 21.3512 1.06163 19.69C0.353878 18.0041 0 16.1569 0 14.1486C0 12.3139 0.305067 10.6031 0.915201 9.01629C1.52534 7.40469 2.40393 5.99143 3.55098 4.77653C4.69803 3.56164 6.07693 2.61947 7.68769 1.95004C9.32285 1.25581 11.1288 0.908693 13.1057 0.908693C15.0825 0.908693 16.8763 1.24341 18.4871 1.91284C20.0978 2.58228 21.4767 3.52444 22.6238 4.73934C23.7708 5.92945 24.6494 7.30551 25.2596 8.86752C25.8941 10.4295 26.2114 12.1155 26.2114 13.9255V28.9134C26.2114 30.2522 25.9673 31.4175 25.4792 32.4093C24.9911 33.4258 24.2955 34.2069 23.3925 34.7523C22.5139 35.2978 21.4401 35.5705 20.171 35.5705ZM19.9514 32.3721C20.7568 32.3721 21.4157 32.0746 21.9282 31.4795C22.4407 30.9093 22.697 30.0787 22.697 28.9878V20.1363C21.4523 20.9545 20.4639 21.7851 19.7317 22.6281C18.9996 23.4711 18.4505 24.2893 18.0844 25.0827C17.7427 25.8761 17.5108 26.6075 17.3888 27.277C17.2912 27.9464 17.2424 28.5043 17.2424 28.9506C17.2424 29.6696 17.3644 30.277 17.6085 30.7729C17.8769 31.2936 18.2186 31.6903 18.6335 31.963C19.0484 32.2357 19.4877 32.3721 19.9514 32.3721ZM13.1057 24.2645C13.4962 24.2645 13.8622 24.2521 14.2039 24.2273C14.5456 24.1777 14.9117 24.1034 15.3022 24.0042C15.6438 23.1612 16.1197 22.3058 16.7299 21.438C17.3644 20.5702 18.1576 19.7148 19.1094 18.8718C20.0856 18.0041 21.2815 17.1983 22.697 16.4544V13.9255C22.697 12.5122 22.4529 11.2105 21.9648 10.0204C21.5011 8.80554 20.83 7.76419 19.9514 6.89641C19.0972 6.00383 18.0844 5.3096 16.9129 4.81372C15.7415 4.29305 14.4724 4.03272 13.1057 4.03272C11.7146 4.03272 10.4333 4.29305 9.26183 4.81372C8.11478 5.3096 7.10196 6.01623 6.22337 6.9336C5.36918 7.85097 4.69803 8.92951 4.20992 10.1692C3.74622 11.3841 3.51437 12.7106 3.51437 14.1486C3.51437 15.5867 3.74622 16.9255 4.20992 18.1652C4.69803 19.3801 5.36918 20.4463 6.22337 21.3636C7.10196 22.281 8.11478 23 9.26183 23.5207C10.4333 24.0166 11.7146 24.2645 13.1057 24.2645Z" fill="#4CAF50"/>
<path d="M40.0223 27.8348C38.1187 27.8348 36.4347 27.4009 34.9704 26.5332C33.5061 25.6406 32.3468 24.4505 31.4926 22.9628C30.6385 21.4504 30.2114 19.7644 30.2114 17.9049C30.2114 16.0453 30.6385 14.3718 31.4926 12.8841C32.3468 11.3717 33.5061 10.1816 34.9704 9.31381C36.4347 8.42123 38.1187 7.97494 40.0223 7.97494C41.9259 7.97494 43.6099 8.42123 45.0742 9.31381C46.563 10.1816 47.7222 11.3593 48.552 12.8469C49.4062 14.3346 49.8333 16.0206 49.8333 17.9049C49.8333 19.7644 49.4062 21.4504 48.552 22.9628C47.7222 24.4505 46.563 25.6406 45.0742 26.5332C43.6099 27.4009 41.9259 27.8348 40.0223 27.8348ZM40.0223 24.8968C41.3158 24.8968 42.4384 24.5868 43.3903 23.967C44.3421 23.3471 45.0864 22.5165 45.6233 21.4752C46.1603 20.4091 46.4287 19.219 46.4287 17.9049C46.4287 16.5908 46.1603 15.4131 45.6233 14.3718C45.0864 13.3056 44.3421 12.4626 43.3903 11.8428C42.4384 11.2229 41.3158 10.913 40.0223 10.913C38.7532 10.913 37.6306 11.2229 36.6544 11.8428C35.7026 12.4626 34.9582 13.3056 34.4213 14.3718C33.8844 15.4131 33.6159 16.5908 33.6159 17.9049C33.6159 19.219 33.8844 20.4091 34.4213 21.4752C34.9582 22.5165 35.7026 23.3471 36.6544 23.967C37.6306 24.5868 38.7532 24.8968 40.0223 24.8968Z" fill="#4CAF50"/>
<path d="M62.9381 27.8348C61.0345 27.8348 59.3505 27.4009 57.8862 26.5332C56.4219 25.6406 55.2626 24.4505 54.4084 22.9628C53.5542 21.4504 53.1271 19.7644 53.1271 17.9049C53.1271 16.0453 53.5542 14.3718 54.4084 12.8841C55.2626 11.3717 56.4219 10.1816 57.8862 9.31381C59.3505 8.42123 61.0345 7.97494 62.9381 7.97494C64.8417 7.97494 66.5257 8.42123 67.99 9.31381C69.4787 10.1816 70.638 11.3593 71.4678 12.8469C72.3219 14.3346 72.749 16.0206 72.749 17.9049C72.749 19.7644 72.3219 21.4504 71.4678 22.9628C70.638 24.4505 69.4787 25.6406 67.99 26.5332C66.5257 27.4009 64.8417 27.8348 62.9381 27.8348ZM62.9381 24.8968C64.2316 24.8968 65.3542 24.5868 66.306 23.967C67.2578 23.3471 68.0022 22.5165 68.5391 21.4752C69.076 20.4091 69.3445 19.219 69.3445 17.9049C69.3445 16.5908 69.076 15.4131 68.5391 14.3718C68.0022 13.3056 67.2578 12.4626 66.306 11.8428C65.3542 11.2229 64.2316 10.913 62.9381 10.913C61.669 10.913 60.5464 11.2229 59.5701 11.8428C58.6183 12.4626 57.874 13.3056 57.3371 14.3718C56.8001 15.4131 56.5317 16.5908 56.5317 17.9049C56.5317 19.219 56.8001 20.4091 57.3371 21.4752C57.874 22.5165 58.6183 23.3471 59.5701 23.967C60.5464 24.5868 61.669 24.8968 62.9381 24.8968Z" fill="#4CAF50"/>
<path d="M85.6708 27.8348C84.2553 27.8348 82.9618 27.6117 81.7904 27.1654C80.6189 26.6943 79.6061 26.0125 78.7519 25.1199C77.8977 24.2273 77.2266 23.1612 76.7385 21.9215C76.2748 20.657 76.0429 19.2438 76.0429 17.6817C76.0429 15.6982 76.4334 13.9875 77.2144 12.5494C78.0197 11.0866 79.1058 9.95845 80.4725 9.16505C81.8636 8.37164 83.4133 7.97494 85.1217 7.97494C86.0735 7.97494 86.9765 8.1361 87.8307 8.45842C88.7093 8.78074 89.4903 9.22703 90.1736 9.79729C90.857 10.3676 91.3939 11.037 91.7844 11.8056H91.8576V0.239258H95.2255V17.7933C95.2255 19.9008 94.7984 21.7107 93.9442 23.2232C93.1145 24.7108 91.9796 25.8513 90.5397 26.6447C89.1242 27.4381 87.5012 27.8348 85.6708 27.8348ZM85.6708 24.8968C86.8179 24.8968 87.8551 24.6116 88.7825 24.0414C89.7099 23.4711 90.4421 22.6653 90.979 21.624C91.5403 20.5826 91.821 19.3553 91.821 17.9421C91.821 16.504 91.5403 15.2643 90.979 14.223C90.4421 13.1569 89.7099 12.3387 88.7825 11.7684C87.8551 11.1981 86.8057 10.913 85.6342 10.913C84.4872 10.913 83.4377 11.2105 82.4859 11.8056C81.5585 12.4006 80.8142 13.2188 80.2528 14.2602C79.7159 15.3015 79.4475 16.5164 79.4475 17.9049C79.4475 19.3429 79.7281 20.5826 80.2894 21.624C80.8508 22.6653 81.5951 23.4711 82.5225 24.0414C83.4743 24.6116 84.5238 24.8968 85.6708 24.8968Z" fill="#4CAF50"/>
<path d="M48.552 54.3147V42.8971C48.552 41.4343 48.8814 40.0954 49.5404 38.8805C50.1993 37.6656 51.1512 36.6986 52.3958 35.9796C53.6405 35.2606 55.1414 34.9011 56.8986 34.9011C57.7528 34.9011 58.607 35.0251 59.4612 35.273C60.3154 35.4961 61.1085 35.8928 61.8407 36.4631C62.5729 37.0086 63.1586 37.7524 63.5979 38.6946H63.6345C64.1226 37.7524 64.7327 37.0086 65.4649 36.4631C66.1971 35.8928 66.9902 35.4961 67.8444 35.273C68.6986 35.0251 69.565 34.9011 70.4436 34.9011C72.1764 34.9011 73.6651 35.2606 74.9098 35.9796C76.1544 36.6986 77.1062 37.6656 77.7652 38.8805C78.4241 40.0954 78.7536 41.4343 78.7536 42.8971V54.3147H75.3857V42.8971C75.3857 41.9549 75.166 41.0996 74.7267 40.3309C74.2874 39.5623 73.6895 38.9549 72.9329 38.5086C72.2008 38.0623 71.3588 37.8392 70.407 37.8392C69.4796 37.8392 68.6254 38.0747 67.8444 38.5458C67.0634 38.9921 66.4411 39.5995 65.9774 40.3681C65.5381 41.112 65.3185 41.9549 65.3185 42.8971V54.3147H61.9505V42.8971C61.9505 41.9549 61.7187 41.112 61.255 40.3681C60.8157 39.5995 60.2055 38.9921 59.4246 38.5458C58.668 38.0747 57.8138 37.8392 56.862 37.8392C55.9346 37.8392 55.0926 38.0623 54.3361 38.5086C53.6039 38.9549 53.0182 39.5623 52.5789 40.3309C52.1396 41.0996 51.9199 41.9549 51.9199 42.8971V54.3147H48.552Z" fill="#4CAF50"/>
<path d="M93.569 54.3147C91.519 54.3147 89.7008 53.9304 88.1144 53.1618C86.5281 52.3684 85.2834 51.265 84.3804 49.8518C83.5018 48.4137 83.0625 46.7402 83.0625 44.831C83.0625 42.9467 83.4408 41.2607 84.1973 39.7731C84.9539 38.2607 86.0033 37.0706 87.3456 36.2028C88.6879 35.335 90.2499 34.9011 92.0315 34.9011C93.9595 34.9011 95.558 35.3226 96.8271 36.1656C98.1206 37.0086 99.0846 38.1491 99.7191 39.5871C100.354 41.0004 100.671 42.5872 100.671 44.3476C100.671 44.6203 100.659 44.9054 100.634 45.2029C100.634 45.5005 100.61 45.7608 100.561 45.984H86.6501C86.7721 47.1493 87.1504 48.141 87.7849 48.9592C88.4195 49.7526 89.2248 50.3601 90.201 50.7816C91.2017 51.1783 92.2999 51.3766 93.4958 51.3766H98.3647V54.3147H93.569ZM86.6135 43.5666H97.2664C97.2664 43.0955 97.2176 42.5996 97.12 42.0789C97.0224 41.5335 96.8515 41.0128 96.6075 40.5169C96.3634 39.9962 96.034 39.5375 95.6191 39.1408C95.2286 38.7193 94.7283 38.3846 94.1181 38.1367C93.5324 37.8888 92.8368 37.7648 92.0315 37.7648C91.1773 37.7648 90.4207 37.9383 89.7618 38.2855C89.1272 38.6078 88.5781 39.0541 88.1144 39.6243C87.6507 40.1698 87.2968 40.7896 87.0528 41.4839C86.8087 42.1781 86.6623 42.8723 86.6135 43.5666Z" fill="#4CAF50"/>
<path d="M112.726 54.761C110.92 54.761 109.359 54.3271 108.041 53.4593C106.723 52.5667 105.71 51.3642 105.002 49.8518C104.294 48.3394 103.941 46.6658 103.941 44.831C103.941 42.9715 104.331 41.2979 105.112 39.8103C105.893 38.2979 107.016 37.1077 108.48 36.24C109.944 35.3474 111.701 34.9011 113.751 34.9011C115.728 34.9011 117.424 35.335 118.84 36.2028C120.256 37.0706 121.342 38.2483 122.098 39.7359C122.879 41.2235 123.27 42.8847 123.27 44.7195V54.3147H119.865V50.4468H119.792C119.426 51.1659 118.925 51.8601 118.291 52.5295C117.681 53.1742 116.912 53.7072 115.985 54.1287C115.057 54.5502 113.971 54.761 112.726 54.761ZM113.605 51.8229C114.825 51.8229 115.899 51.5254 116.827 50.9303C117.778 50.3105 118.511 49.4675 119.023 48.4014C119.56 47.3104 119.828 46.0955 119.828 44.7567C119.828 43.4426 119.572 42.2649 119.06 41.2235C118.572 40.1822 117.864 39.364 116.936 38.7689C116.009 38.1491 114.923 37.8392 113.678 37.8392C112.36 37.8392 111.226 38.1491 110.274 38.7689C109.346 39.3888 108.626 40.2318 108.114 41.2979C107.626 42.3393 107.382 43.5294 107.382 44.8682C107.382 46.1575 107.626 47.3352 108.114 48.4014C108.602 49.4427 109.31 50.2733 110.237 50.8931C111.165 51.513 112.287 51.8229 113.605 51.8229Z" fill="#4CAF50"/>
<path d="M128.632 54.3147V27.1654H132V54.3147H128.632Z" fill="#4CAF50"/>
</svg>
