<svg width="25" height="24" viewBox="0 0 25 24" fill="none" xmlns="http://www.w3.org/2000/svg">
<path d="M21.6931 19.0189L16.9554 14.9902C16.4654 14.549 15.9416 14.3478 15.5191 14.3665C16.7765 12.8922 17.4144 10.9885 17.2993 9.05424C17.1841 7.12002 16.3248 5.30543 14.9014 3.99068C13.478 2.67593 11.6009 1.96307 9.6635 2.00147C7.72612 2.03988 5.87878 2.82656 4.50858 4.19668C3.13837 5.56679 2.35165 7.41402 2.31324 9.35128C2.27484 11.2885 2.98774 13.1655 4.30257 14.5888C5.6174 16.0122 7.43211 16.8714 9.36645 16.9866C11.3008 17.1017 13.2046 16.4638 14.679 15.2065C14.659 15.629 14.8616 16.1527 15.3028 16.6427L19.3318 21.3802C20.0218 22.1464 21.1481 22.2114 21.8357 21.5239C22.5232 20.8364 22.4582 19.7089 21.6919 19.0202L21.6931 19.0189ZM9.81254 14.499C8.48639 14.499 7.21456 13.9722 6.27683 13.0346C5.3391 12.0969 4.81229 10.8251 4.81229 9.49906C4.81229 8.17299 5.3391 6.90124 6.27683 5.96357C7.21456 5.02589 8.48639 4.49912 9.81254 4.49912C11.1387 4.49912 12.4105 5.02589 13.3483 5.96357C14.286 6.90124 14.8128 8.17299 14.8128 9.49906C14.8128 10.8251 14.286 12.0969 13.3483 13.0346C12.4105 13.9722 11.1387 14.499 9.81254 14.499Z" fill="#4CAF50"/>
</svg>
