<svg width="24" height="24" viewBox="0 0 24 24" fill="none" xmlns="http://www.w3.org/2000/svg">
<path opacity="0.7" d="M2.3998 10.3999C1.97546 10.3999 1.56849 10.5685 1.26843 10.8685C0.968376 11.1686 0.799805 11.5756 0.799805 11.9999C0.799805 12.4242 0.968376 12.8312 1.26843 13.1313C1.56849 13.4313 1.97546 13.5999 2.3998 13.5999H15.1998C15.6242 13.5999 16.0311 13.4313 16.3312 13.1313C16.6312 12.8312 16.7998 12.4242 16.7998 11.9999C16.7998 11.5756 16.6312 11.1686 16.3312 10.8685C16.0311 10.5685 15.6242 10.3999 15.1998 10.3999H2.3998ZM2.3998 16.7999C1.97546 16.7999 1.56849 16.9685 1.26843 17.2685C0.968376 17.5686 0.799805 17.9756 0.799805 18.3999C0.799805 18.8242 0.968376 19.2312 1.26843 19.5313C1.56849 19.8313 1.97546 19.9999 2.3998 19.9999H15.1998C15.6242 19.9999 16.0311 19.8313 16.3312 19.5313C16.6312 19.2312 16.7998 18.8242 16.7998 18.3999C16.7998 17.9756 16.6312 17.5686 16.3312 17.2685C16.0311 16.9685 15.6242 16.7999 15.1998 16.7999H2.3998Z" fill="#1E1E1E"/>
<path d="M0.799805 5.6C0.799805 5.17565 0.968376 4.76869 1.26843 4.46863C1.56849 4.16857 1.97546 4 2.3998 4H21.5998C22.0242 4 22.4311 4.16857 22.7312 4.46863C23.0312 4.76869 23.1998 5.17565 23.1998 5.6C23.1998 6.02435 23.0312 6.43131 22.7312 6.73137C22.4311 7.03143 22.0242 7.2 21.5998 7.2H2.3998C1.97546 7.2 1.56849 7.03143 1.26843 6.73137C0.968376 6.43131 0.799805 6.02435 0.799805 5.6Z" fill="#1E1E1E"/>
</svg>
