<svg width="30" height="31" viewBox="0 0 30 31" fill="none" xmlns="http://www.w3.org/2000/svg">
<path fill-rule="evenodd" clip-rule="evenodd" d="M8 0.5C3.58172 0.5 0 4.08172 0 8.5V22.5C0 26.9183 3.58172 30.5 8 30.5H22C26.4183 30.5 30 26.9183 30 22.5V8.5C30 4.08172 26.4183 0.5 22 0.5H8ZM21.6001 8.76019C21.4009 8.73319 21.198 8.76009 21.0127 8.8381L8.18767 14.2381C7.29367 14.6146 7.24792 15.9076 8.18842 16.2976C8.88442 16.5863 9.73717 16.8233 10.6567 16.9763C11.1607 17.0603 11.5822 16.9763 12.3907 16.4843C13.3072 15.9263 16.0792 13.9441 17.8057 12.6406C18.5009 12.1156 18.7694 12.4448 18.1807 13.0156C17.9766 13.2133 17.7516 13.4293 17.5149 13.6567C16.0118 15.1001 14.0332 17.0003 13.8907 17.5621C13.6987 18.3226 15.2609 19.3913 15.7709 19.7251C16.7909 20.3918 17.9249 21.0308 18.6884 21.4456C19.6012 21.9413 20.6932 21.3706 20.8582 20.3753L22.5592 10.0576C22.5918 9.85918 22.5707 9.65564 22.4979 9.46816C22.4252 9.28068 22.3036 9.11613 22.1457 8.99161C21.9878 8.8671 21.7994 8.78719 21.6001 8.76019Z" fill="#FF5722"/>
</svg>
