<svg width="30" height="31" viewBox="0 0 30 31" fill="none" xmlns="http://www.w3.org/2000/svg">
<path fill-rule="evenodd" clip-rule="evenodd" d="M6.73363 0.5H23.2664C26.9852 0.5 30 3.51475 30 7.23363V23.7664C30 27.4852 26.9852 30.5 23.2664 30.5H6.73363C3.01475 30.5 0 27.4852 0 23.7664V7.23363C0 3.51475 3.01475 0.5 6.73363 0.5ZM21.2621 8.91468C21.9142 9.54322 22.4025 10.3218 22.6844 11.1825C23.1335 13.3478 23.1087 15.5846 22.6117 17.7395C22.3298 18.6002 21.8414 19.3787 21.1893 20.0073C20.5373 20.6358 19.7413 21.0952 18.8708 21.3453C17.5796 21.5931 16.2679 21.7183 14.9532 21.7194H13.7998L12.0228 23.5587C11.9252 23.6601 11.7995 23.7301 11.6619 23.7596C11.5242 23.7891 11.3809 23.7769 11.2503 23.7244C11.1196 23.6719 11.0077 23.5816 10.9287 23.4651C10.8497 23.3485 10.8074 23.211 10.8071 23.0703V21.3141C9.98224 21.0375 9.23337 20.5722 8.62002 19.9552C8.00667 19.3383 7.54576 18.5867 7.27398 17.7603C6.79491 15.5868 6.79491 13.3351 7.27398 11.1617C7.56758 10.2941 8.07139 9.51265 8.74046 8.8871C9.40952 8.26156 10.223 7.81136 11.1084 7.57667C13.6965 7.07991 16.3554 7.07991 18.9435 7.57667C19.814 7.82678 20.61 8.28615 21.2621 8.91468ZM20.256 18.9912C20.7135 18.5517 21.0643 18.0134 21.2816 17.4173V17.4693C21.71 15.5038 21.7064 13.4686 21.2712 11.5046C21.0539 10.9086 20.7031 10.3702 20.2456 9.93073C19.7881 9.49124 19.2361 9.1623 18.6318 8.96912C16.2289 8.50976 13.7607 8.50976 11.3578 8.96912C10.7535 9.1623 10.2015 9.49124 9.744 9.93073C9.2865 10.3702 8.93567 10.9086 8.71838 11.5046C8.28689 13.4694 8.28689 15.5045 8.71838 17.4693C8.93567 18.0653 9.2865 18.6037 9.744 19.0432C10.2015 19.4827 10.7535 19.8116 11.3578 20.0048C11.3799 20.0092 11.4 20.0208 11.415 20.0376C11.43 20.0545 11.4391 20.0758 11.4409 20.0983V22.9975C11.4421 23.0295 11.4525 23.0604 11.4709 23.0866C11.4892 23.1128 11.5147 23.1331 11.5443 23.1452C11.574 23.1572 11.6064 23.1605 11.6378 23.1546C11.6693 23.1487 11.6983 23.1338 11.7215 23.1118L13.1036 21.6986L14.4129 20.2854C14.4244 20.2805 14.4367 20.278 14.4492 20.278C14.4617 20.278 14.4741 20.2805 14.4856 20.2854C15.8791 20.3243 17.2726 20.2128 18.6422 19.9528C19.2464 19.7597 19.7985 19.4307 20.256 18.9912ZM18.5174 16.9602C18.3012 16.7789 18.0758 16.609 17.842 16.4511C17.7879 16.4135 17.7344 16.3759 17.6811 16.3384C17.4985 16.2102 17.318 16.0833 17.125 15.9627C17.0154 15.8809 16.8824 15.8367 16.7457 15.8367C16.609 15.8367 16.4759 15.8809 16.3664 15.9627C16.2854 16.029 16.2187 16.1175 16.152 16.2059L16.152 16.206C16.0306 16.3671 15.9093 16.5282 15.7013 16.555C15.5123 16.56 15.3255 16.5133 15.161 16.4199C14.6671 16.2021 14.2259 15.8806 13.8673 15.4771C13.5087 15.0737 13.2411 14.5978 13.0827 14.0818C13.0507 14.0172 13.034 13.9461 13.034 13.874C13.034 13.8019 13.0507 13.7308 13.0827 13.6662C13.1277 13.5983 13.1839 13.5385 13.249 13.4895L13.4672 13.3233C13.6101 13.2242 13.7092 13.0739 13.7441 12.9035C13.7789 12.7332 13.7467 12.556 13.6542 12.4088C13.3581 11.9027 13.0099 11.4291 12.6151 10.9956C12.5422 10.8962 12.4363 10.8259 12.3164 10.7973C12.1965 10.7688 12.0703 10.7838 11.9604 10.8397C11.6501 10.9847 11.3739 11.1936 11.1499 11.4528C11.0073 11.5805 10.9027 11.7451 10.8477 11.9285C10.7926 12.1118 10.7894 12.3068 10.8382 12.4919C11.0044 12.8972 11.1707 13.3025 11.3577 13.6973C11.7537 14.5307 12.2606 15.3067 12.8645 16.0042C13.9578 17.174 15.3052 18.0771 16.8028 18.6437C16.8932 18.6824 16.9876 18.7091 17.0835 18.7362L17.0835 18.7362L17.0836 18.7362L17.0836 18.7362C17.142 18.7528 17.201 18.7695 17.2601 18.7891C17.4026 18.7573 17.5417 18.7121 17.6757 18.654C18.1022 18.4219 18.4415 18.0571 18.6421 17.6149C18.6994 17.508 18.7182 17.3847 18.6955 17.2655C18.6728 17.1464 18.61 17.0386 18.5174 16.9602ZM14.891 10.3615H15.0053C15.9297 10.3632 16.8244 10.6883 17.5342 11.2804C18.244 11.8726 18.7243 12.6945 18.8917 13.6036C18.9956 13.9777 18.9956 14.3102 18.9956 14.6427C19.0016 14.6752 19.0005 14.7085 18.9924 14.7405C18.9843 14.7725 18.9694 14.8024 18.9487 14.828C18.9279 14.8537 18.9019 14.8746 18.8723 14.8892C18.8428 14.9039 18.8104 14.9119 18.7774 14.9129L18.7613 14.9129C18.6172 14.9133 18.5584 14.9134 18.5384 14.6427C18.5305 14.536 18.5181 14.4292 18.5057 14.323C18.4856 14.1501 18.4657 13.9788 18.4657 13.8114C18.3589 13.0948 18.0313 12.4293 17.5284 11.9077C17.0254 11.3861 16.3723 11.0345 15.66 10.9018C15.5202 10.8529 15.3383 10.8463 15.1898 10.8409C15.1174 10.8382 15.053 10.8359 15.0053 10.8291C14.9874 10.8265 14.9686 10.8243 14.9494 10.822L14.9494 10.822C14.8119 10.8056 14.652 10.7866 14.652 10.6316C14.6475 10.5977 14.6504 10.5633 14.6604 10.5306C14.6704 10.4979 14.6873 10.4677 14.71 10.4421C14.7326 10.4165 14.7605 10.396 14.7917 10.3821C14.823 10.3682 14.8568 10.3612 14.891 10.3615ZM17.5094 14.1648C17.4995 14.2267 17.4995 14.2899 17.5094 14.3518C17.5235 14.3959 17.5513 14.4343 17.5886 14.4616C17.626 14.4888 17.671 14.5035 17.7173 14.5035C17.7635 14.5035 17.8086 14.4888 17.8459 14.4616C17.8833 14.4343 17.911 14.3959 17.9251 14.3518C17.9285 14.3069 17.9285 14.2617 17.9251 14.2167V13.8842V13.7595C17.8758 13.3351 17.7218 12.9297 17.4769 12.5796C17.2321 12.2295 16.904 11.9458 16.5223 11.754C16.1255 11.5513 15.6893 11.4378 15.2441 11.4215C15.2151 11.4185 15.1858 11.4218 15.1582 11.4309C15.1305 11.44 15.1051 11.4549 15.0835 11.4745C15.062 11.4941 15.0448 11.518 15.0331 11.5446C15.0213 11.5713 15.0154 11.6001 15.0155 11.6293C15.0111 11.6582 15.0128 11.6877 15.0206 11.716C15.0284 11.7442 15.0421 11.7704 15.0607 11.793C15.0794 11.8155 15.1026 11.8339 15.1288 11.8469C15.155 11.8599 15.1837 11.8672 15.2129 11.8683L15.587 11.9306C15.8428 11.9705 16.0913 12.0476 16.3248 12.1592C16.7108 12.3502 17.0323 12.65 17.2497 13.0217C17.431 13.3748 17.5204 13.768 17.5094 14.1648ZM16.8284 13.3055C16.8952 13.4693 16.9288 13.6447 16.9275 13.8216C16.937 13.8836 16.937 13.9467 16.9275 14.0087C16.9152 14.0554 16.8862 14.0961 16.846 14.1229C16.8058 14.1497 16.7571 14.1608 16.7092 14.1542C16.677 14.1556 16.6448 14.1504 16.6146 14.139C16.5844 14.1277 16.5568 14.1103 16.5335 14.0879C16.5102 14.0656 16.4916 14.0388 16.479 14.0091C16.4663 13.9794 16.4598 13.9474 16.4599 13.9152C16.4665 13.8113 16.4665 13.7072 16.4599 13.6034C16.4163 13.4008 16.3021 13.2203 16.1377 13.0942C16.0589 13.038 15.971 12.9959 15.8779 12.9695C15.7532 12.9176 15.6285 12.9176 15.5142 12.9176C15.4853 12.9126 15.4577 12.9019 15.4331 12.886C15.4084 12.8701 15.3872 12.8495 15.3707 12.8252C15.3542 12.801 15.3428 12.7736 15.3371 12.7449C15.3314 12.7161 15.3316 12.6865 15.3376 12.6578C15.3499 12.6019 15.3818 12.5523 15.4276 12.518C15.4733 12.4837 15.5299 12.4669 15.587 12.4708C15.7639 12.4707 15.939 12.5058 16.1024 12.5738C16.2657 12.6418 16.4139 12.7415 16.5385 12.867C16.6631 12.9926 16.7617 13.1416 16.8284 13.3055Z" fill="#FF5722"/>
</svg>
